<?xml version="1.0" encoding="UTF-8" standalone="no"?>
<!-- Generator: Adobe Illustrator 16.0.3, SVG Export Plug-In . SVG Version: 6.00 Build 0)  -->

<svg
   version="1.1"
   id="Southwest_Logo_1_"
   x="0px"
   y="0px"
   width="100"
   height="95.830002"
   viewBox="0 0 100 95.83"
   enable-background="new 0 0 223 34"
   xml:space="preserve"
   sodipodi:docname="southwest-heart.svg"
   inkscape:version="1.2.1 (9c6d41e410, 2022-07-14)"
   xmlns:inkscape="http://www.inkscape.org/namespaces/inkscape"
   xmlns:sodipodi="http://sodipodi.sourceforge.net/DTD/sodipodi-0.dtd"
   xmlns="http://www.w3.org/2000/svg"
   xmlns:svg="http://www.w3.org/2000/svg"><defs
   id="defs36" /><sodipodi:namedview
   id="namedview34"
   pagecolor="#ffffff"
   bordercolor="#666666"
   borderopacity="1.0"
   inkscape:showpageshadow="2"
   inkscape:pageopacity="0.0"
   inkscape:pagecheckerboard="0"
   inkscape:deskcolor="#d1d1d1"
   showgrid="false"
   inkscape:zoom="1"
   inkscape:cx="111"
   inkscape:cy="60.5"
   inkscape:window-width="1920"
   inkscape:window-height="1001"
   inkscape:window-x="-9"
   inkscape:window-y="-9"
   inkscape:window-maximized="1"
   inkscape:current-layer="Southwest_Logo_1_" />

<g
   id="g31"
   transform="matrix(4.2720221,0,0,4.2720221,-812.88898,-46.069486)">
	<g
   id="g29">
		<path
   fill="#cccccc"
   d="m 206.955,10.784 c -2.029,0 -3.663,0.707 -4.969,1.45 -1.307,-0.743 -2.938,-1.45 -4.968,-1.45 -4.057,0 -6.736,2.65 -6.736,7.178 0,5.524 5.275,10.921 11.704,15.254 6.43,-4.334 11.704,-9.729 11.704,-15.254 0,-4.527 -2.677,-7.178 -6.735,-7.178 z"
   id="path2" />
		
			<linearGradient
   id="SVGID_1_"
   gradientUnits="userSpaceOnUse"
   x1="190.94431"
   y1="10.52"
   x2="206.4014"
   y2="10.52"
   gradientTransform="matrix(1,0,0,-1,0,35)">
			<stop
   offset="0"
   style="stop-color:#3656CC"
   id="stop4" />
			<stop
   offset="0.35"
   style="stop-color:#304CB2"
   id="stop6" />
			<stop
   offset="0.72"
   style="stop-color:#283B80"
   id="stop8" />
		</linearGradient>
		<path
   fill="url(#SVGID_1_)"
   d="m 190.944,18.059 c 0,5.648 5.956,10.902 11.042,14.38 1.464,-1.002 2.976,-2.152 4.415,-3.416 -6.738,-5.644 -13.062,-10.693 -15.331,-12.501 -0.081,0.483 -0.126,0.998 -0.126,1.537 z"
   id="path11"
   style="fill:url(#SVGID_1_)" />
		
			<linearGradient
   id="SVGID_2_"
   gradientUnits="userSpaceOnUse"
   x1="193.14059"
   y1="22.730499"
   x2="210.60201"
   y2="10.5039"
   gradientTransform="matrix(1,0,0,-1,0,35)">
			<stop
   offset="0.3"
   style="stop-color:#E61C23"
   id="stop13" />
			<stop
   offset="0.8"
   style="stop-color:#C3161C"
   id="stop15" />
		</linearGradient>
		<path
   fill="url(#SVGID_2_)"
   d="m 212.577,20.679 c -4.883,-4.027 -7.84,-6.077 -11.011,-7.98 -0.854,-0.516 -2.569,-1.27 -4.492,-1.27 -1.842,0 -3.389,0.573 -4.455,1.69 -0.694,0.725 -1.165,1.636 -1.434,2.741 2.529,1.766 9.396,6.676 16.313,12.154 2.31,-2.199 4.245,-4.7 5.079,-7.335 z"
   id="path18"
   style="fill:url(#SVGID_2_)" />
		
			<linearGradient
   id="SVGID_3_"
   gradientUnits="userSpaceOnUse"
   x1="203.9639"
   y1="24.309601"
   x2="213.9473"
   y2="17.319099"
   gradientTransform="matrix(1,0,0,-1,0,35)">
			<stop
   offset="0"
   style="stop-color:#FDBC11"
   id="stop20" />
			<stop
   offset="0.25"
   style="stop-color:#FCB415"
   id="stop22" />
			<stop
   offset="0.8"
   style="stop-color:#F89E1C"
   id="stop24" />
		</linearGradient>
		<path
   fill="url(#SVGID_3_)"
   d="m 211.343,13.122 c -1.05,-1.094 -2.589,-1.683 -4.36,-1.683 -1.9,0 -3.348,0.614 -4.357,1.162 1.894,1.054 6.009,3.439 10.272,6.579 0.066,-0.424 0.103,-0.85 0.103,-1.278 -0.001,-1.989 -0.582,-3.655 -1.658,-4.78 z"
   id="path27"
   style="fill:url(#SVGID_3_)" />
	</g>
</g>
</svg>
